<mxfile host="app.diagrams.net" agent="Mozilla/5.0 (Windows NT 10.0; Win64; x64) AppleWebKit/537.36 (KHTML, like Gecko) Chrome/126.0.0.0 Safari/537.36 OPR/112.0.0.0" version="24.7.13">
  <diagram name="Страница — 1" id="Hh8i2M0lmDG-EVrgb_Gs">
    <mxGraphModel dx="1984" dy="1867" grid="1" gridSize="10" guides="1" tooltips="1" connect="1" arrows="1" fold="1" page="1" pageScale="1" pageWidth="827" pageHeight="1169" math="0" shadow="0">
      <root>
        <mxCell id="0" />
        <mxCell id="1" parent="0" />
        <mxCell id="R_PIGrK0LNhuMsJrcznG-11" style="rounded=0;orthogonalLoop=1;jettySize=auto;html=1;exitX=0.5;exitY=0.5;exitDx=0;exitDy=0;exitPerimeter=0;entryX=0;entryY=0.5;entryDx=0;entryDy=0;edgeStyle=orthogonalEdgeStyle;" edge="1" parent="1" source="R_PIGrK0LNhuMsJrcznG-1" target="R_PIGrK0LNhuMsJrcznG-4">
          <mxGeometry relative="1" as="geometry" />
        </mxCell>
        <mxCell id="R_PIGrK0LNhuMsJrcznG-12" style="rounded=0;orthogonalLoop=1;jettySize=auto;html=1;exitX=0.5;exitY=0.5;exitDx=0;exitDy=0;exitPerimeter=0;entryX=0;entryY=0.5;entryDx=0;entryDy=0;edgeStyle=orthogonalEdgeStyle;" edge="1" parent="1" source="R_PIGrK0LNhuMsJrcznG-1" target="R_PIGrK0LNhuMsJrcznG-5">
          <mxGeometry relative="1" as="geometry" />
        </mxCell>
        <mxCell id="R_PIGrK0LNhuMsJrcznG-13" style="rounded=0;orthogonalLoop=1;jettySize=auto;html=1;exitX=0.5;exitY=0.5;exitDx=0;exitDy=0;exitPerimeter=0;entryX=0;entryY=0.5;entryDx=0;entryDy=0;edgeStyle=orthogonalEdgeStyle;" edge="1" parent="1" source="R_PIGrK0LNhuMsJrcznG-1" target="R_PIGrK0LNhuMsJrcznG-6">
          <mxGeometry relative="1" as="geometry" />
        </mxCell>
        <mxCell id="R_PIGrK0LNhuMsJrcznG-14" style="rounded=0;orthogonalLoop=1;jettySize=auto;html=1;exitX=0.5;exitY=0.5;exitDx=0;exitDy=0;exitPerimeter=0;entryX=0;entryY=0.5;entryDx=0;entryDy=0;edgeStyle=orthogonalEdgeStyle;" edge="1" parent="1" source="R_PIGrK0LNhuMsJrcznG-1" target="R_PIGrK0LNhuMsJrcznG-7">
          <mxGeometry relative="1" as="geometry" />
        </mxCell>
        <mxCell id="R_PIGrK0LNhuMsJrcznG-15" style="rounded=0;orthogonalLoop=1;jettySize=auto;html=1;exitX=0.5;exitY=0.5;exitDx=0;exitDy=0;exitPerimeter=0;entryX=0;entryY=0.5;entryDx=0;entryDy=0;edgeStyle=orthogonalEdgeStyle;" edge="1" parent="1" source="R_PIGrK0LNhuMsJrcznG-1" target="R_PIGrK0LNhuMsJrcznG-10">
          <mxGeometry relative="1" as="geometry">
            <Array as="points">
              <mxPoint x="30" y="160" />
              <mxPoint x="30" y="320" />
            </Array>
          </mxGeometry>
        </mxCell>
        <mxCell id="R_PIGrK0LNhuMsJrcznG-1" value="Студент" style="shape=umlActor;verticalLabelPosition=bottom;verticalAlign=top;html=1;outlineConnect=0;" vertex="1" parent="1">
          <mxGeometry x="-90" y="120" width="40" height="80" as="geometry" />
        </mxCell>
        <mxCell id="R_PIGrK0LNhuMsJrcznG-4" value="Просмотр расписания" style="ellipse;whiteSpace=wrap;html=1;" vertex="1" parent="1">
          <mxGeometry x="110" y="-30" width="120" height="60" as="geometry" />
        </mxCell>
        <mxCell id="R_PIGrK0LNhuMsJrcznG-5" value="Просмотр информации о преподавателе" style="ellipse;whiteSpace=wrap;html=1;" vertex="1" parent="1">
          <mxGeometry x="110" y="50" width="120" height="60" as="geometry" />
        </mxCell>
        <mxCell id="R_PIGrK0LNhuMsJrcznG-6" value="Просмотр информации о факультете" style="ellipse;whiteSpace=wrap;html=1;" vertex="1" parent="1">
          <mxGeometry x="110" y="130" width="120" height="60" as="geometry" />
        </mxCell>
        <mxCell id="R_PIGrK0LNhuMsJrcznG-7" value="Просмотр информации об успеваемости" style="ellipse;whiteSpace=wrap;html=1;" vertex="1" parent="1">
          <mxGeometry x="110" y="210" width="120" height="60" as="geometry" />
        </mxCell>
        <mxCell id="R_PIGrK0LNhuMsJrcznG-10" value="Просмотр информации о кафедре" style="ellipse;whiteSpace=wrap;html=1;" vertex="1" parent="1">
          <mxGeometry x="110" y="290" width="120" height="60" as="geometry" />
        </mxCell>
        <mxCell id="R_PIGrK0LNhuMsJrcznG-22" style="edgeStyle=orthogonalEdgeStyle;rounded=0;orthogonalLoop=1;jettySize=auto;html=1;exitX=0.5;exitY=0.5;exitDx=0;exitDy=0;exitPerimeter=0;entryX=1;entryY=0.5;entryDx=0;entryDy=0;" edge="1" parent="1" source="R_PIGrK0LNhuMsJrcznG-17" target="R_PIGrK0LNhuMsJrcznG-20">
          <mxGeometry relative="1" as="geometry" />
        </mxCell>
        <mxCell id="R_PIGrK0LNhuMsJrcznG-17" value="Администратор" style="shape=umlActor;verticalLabelPosition=bottom;verticalAlign=top;html=1;outlineConnect=0;" vertex="1" parent="1">
          <mxGeometry x="580" width="40" height="80" as="geometry" />
        </mxCell>
        <mxCell id="R_PIGrK0LNhuMsJrcznG-31" style="edgeStyle=orthogonalEdgeStyle;rounded=0;orthogonalLoop=1;jettySize=auto;html=1;exitX=0.5;exitY=0.5;exitDx=0;exitDy=0;exitPerimeter=0;entryX=1;entryY=0.5;entryDx=0;entryDy=0;" edge="1" parent="1" source="R_PIGrK0LNhuMsJrcznG-18" target="R_PIGrK0LNhuMsJrcznG-6">
          <mxGeometry relative="1" as="geometry">
            <Array as="points">
              <mxPoint x="380" y="160" />
              <mxPoint x="380" y="160" />
            </Array>
          </mxGeometry>
        </mxCell>
        <mxCell id="R_PIGrK0LNhuMsJrcznG-32" style="edgeStyle=orthogonalEdgeStyle;rounded=0;orthogonalLoop=1;jettySize=auto;html=1;exitX=0.5;exitY=0.5;exitDx=0;exitDy=0;exitPerimeter=0;entryX=1;entryY=0.5;entryDx=0;entryDy=0;" edge="1" parent="1" source="R_PIGrK0LNhuMsJrcznG-18" target="R_PIGrK0LNhuMsJrcznG-10">
          <mxGeometry relative="1" as="geometry">
            <Array as="points">
              <mxPoint x="310" y="160" />
              <mxPoint x="310" y="320" />
            </Array>
          </mxGeometry>
        </mxCell>
        <mxCell id="R_PIGrK0LNhuMsJrcznG-33" style="edgeStyle=orthogonalEdgeStyle;rounded=0;orthogonalLoop=1;jettySize=auto;html=1;exitX=0.5;exitY=0.5;exitDx=0;exitDy=0;exitPerimeter=0;entryX=1;entryY=0.5;entryDx=0;entryDy=0;" edge="1" parent="1" source="R_PIGrK0LNhuMsJrcznG-18" target="R_PIGrK0LNhuMsJrcznG-5">
          <mxGeometry relative="1" as="geometry">
            <Array as="points">
              <mxPoint x="310" y="160" />
              <mxPoint x="310" y="80" />
            </Array>
          </mxGeometry>
        </mxCell>
        <mxCell id="R_PIGrK0LNhuMsJrcznG-34" style="edgeStyle=orthogonalEdgeStyle;rounded=0;orthogonalLoop=1;jettySize=auto;html=1;exitX=0.5;exitY=0.5;exitDx=0;exitDy=0;exitPerimeter=0;entryX=1;entryY=0.5;entryDx=0;entryDy=0;" edge="1" parent="1" source="R_PIGrK0LNhuMsJrcznG-18" target="R_PIGrK0LNhuMsJrcznG-4">
          <mxGeometry relative="1" as="geometry">
            <Array as="points">
              <mxPoint x="310" y="160" />
              <mxPoint x="310" />
            </Array>
          </mxGeometry>
        </mxCell>
        <mxCell id="R_PIGrK0LNhuMsJrcznG-36" style="edgeStyle=orthogonalEdgeStyle;rounded=0;orthogonalLoop=1;jettySize=auto;html=1;exitX=0.5;exitY=0.5;exitDx=0;exitDy=0;exitPerimeter=0;entryX=1;entryY=0.5;entryDx=0;entryDy=0;" edge="1" parent="1" source="R_PIGrK0LNhuMsJrcznG-18" target="R_PIGrK0LNhuMsJrcznG-35">
          <mxGeometry relative="1" as="geometry">
            <Array as="points">
              <mxPoint x="310" y="160" />
              <mxPoint x="310" y="430" />
            </Array>
          </mxGeometry>
        </mxCell>
        <mxCell id="R_PIGrK0LNhuMsJrcznG-18" value="Преподаватель" style="shape=umlActor;verticalLabelPosition=bottom;verticalAlign=top;html=1;outlineConnect=0;" vertex="1" parent="1">
          <mxGeometry x="400" y="120" width="40" height="80" as="geometry" />
        </mxCell>
        <mxCell id="R_PIGrK0LNhuMsJrcznG-27" style="edgeStyle=orthogonalEdgeStyle;rounded=0;orthogonalLoop=1;jettySize=auto;html=1;exitX=0.5;exitY=0.5;exitDx=0;exitDy=0;exitPerimeter=0;entryX=1;entryY=0.5;entryDx=0;entryDy=0;" edge="1" parent="1" source="R_PIGrK0LNhuMsJrcznG-19" target="R_PIGrK0LNhuMsJrcznG-23">
          <mxGeometry relative="1" as="geometry" />
        </mxCell>
        <mxCell id="R_PIGrK0LNhuMsJrcznG-28" style="edgeStyle=orthogonalEdgeStyle;rounded=0;orthogonalLoop=1;jettySize=auto;html=1;exitX=0.5;exitY=0.5;exitDx=0;exitDy=0;exitPerimeter=0;entryX=1;entryY=0.5;entryDx=0;entryDy=0;" edge="1" parent="1" source="R_PIGrK0LNhuMsJrcznG-19" target="R_PIGrK0LNhuMsJrcznG-24">
          <mxGeometry relative="1" as="geometry" />
        </mxCell>
        <mxCell id="R_PIGrK0LNhuMsJrcznG-29" style="edgeStyle=orthogonalEdgeStyle;rounded=0;orthogonalLoop=1;jettySize=auto;html=1;exitX=0.5;exitY=0.5;exitDx=0;exitDy=0;exitPerimeter=0;entryX=1;entryY=0.5;entryDx=0;entryDy=0;" edge="1" parent="1" source="R_PIGrK0LNhuMsJrcznG-19" target="R_PIGrK0LNhuMsJrcznG-25">
          <mxGeometry relative="1" as="geometry" />
        </mxCell>
        <mxCell id="R_PIGrK0LNhuMsJrcznG-30" style="edgeStyle=orthogonalEdgeStyle;rounded=0;orthogonalLoop=1;jettySize=auto;html=1;exitX=0.5;exitY=0.5;exitDx=0;exitDy=0;exitPerimeter=0;entryX=1;entryY=0.5;entryDx=0;entryDy=0;" edge="1" parent="1" source="R_PIGrK0LNhuMsJrcznG-19" target="R_PIGrK0LNhuMsJrcznG-26">
          <mxGeometry relative="1" as="geometry" />
        </mxCell>
        <mxCell id="R_PIGrK0LNhuMsJrcznG-19" value="Диспетчер" style="shape=umlActor;verticalLabelPosition=bottom;verticalAlign=top;html=1;outlineConnect=0;" vertex="1" parent="1">
          <mxGeometry x="680" y="230" width="40" height="80" as="geometry" />
        </mxCell>
        <mxCell id="R_PIGrK0LNhuMsJrcznG-20" value="Администрирование Базы данных" style="ellipse;whiteSpace=wrap;html=1;" vertex="1" parent="1">
          <mxGeometry x="420" y="10" width="120" height="60" as="geometry" />
        </mxCell>
        <mxCell id="R_PIGrK0LNhuMsJrcznG-23" value="Управление расписанием" style="ellipse;whiteSpace=wrap;html=1;" vertex="1" parent="1">
          <mxGeometry x="520" y="130" width="120" height="60" as="geometry" />
        </mxCell>
        <mxCell id="R_PIGrK0LNhuMsJrcznG-24" value="Управление информацией о преподавательском составе" style="ellipse;whiteSpace=wrap;html=1;" vertex="1" parent="1">
          <mxGeometry x="520" y="200" width="120" height="60" as="geometry" />
        </mxCell>
        <mxCell id="R_PIGrK0LNhuMsJrcznG-25" value="Управление информацией о группах" style="ellipse;whiteSpace=wrap;html=1;" vertex="1" parent="1">
          <mxGeometry x="520" y="270" width="120" height="60" as="geometry" />
        </mxCell>
        <mxCell id="R_PIGrK0LNhuMsJrcznG-26" value="Управление информацией о студентах" style="ellipse;whiteSpace=wrap;html=1;" vertex="1" parent="1">
          <mxGeometry x="520" y="350" width="120" height="60" as="geometry" />
        </mxCell>
        <mxCell id="R_PIGrK0LNhuMsJrcznG-35" value="Управление информацией о преподавателе" style="ellipse;whiteSpace=wrap;html=1;" vertex="1" parent="1">
          <mxGeometry x="100" y="400" width="120" height="60" as="geometry" />
        </mxCell>
      </root>
    </mxGraphModel>
  </diagram>
</mxfile>
